<?xml version="1.0" encoding="UTF-8"?>
<svg width="64px" height="64px" viewBox="0 0 64 64" version="1.1" xmlns="http://www.w3.org/2000/svg" xmlns:xlink="http://www.w3.org/1999/xlink">
    <title>logo</title>
    <g id="logo" stroke="none" stroke-width="1" fill="none" fill-rule="evenodd">
        <g id="section-1" transform="translate(0.000000, 4.000000)" fill-rule="nonzero">
            <g id="icon-juggler">
                <path d="M31.9344578,18.655093 C37.274988,18.655093 41.6030843,14.4788571 41.6030843,9.32829025 C41.6030843,4.17623583 37.274988,0 31.9344578,0 C26.5931566,0 22.2642892,4.17623583 22.2642892,9.32829025 C22.2650602,14.4788571 26.5931566,18.655093 31.9344578,18.655093 L31.9344578,18.655093 Z" id="Shape" fill="#EAEAEA"></path>
                <ellipse id="Oval" fill="#CC0000" cx="4.19392771" cy="9.32829025" rx="4.19392771" ry="4.04533333"></ellipse>
                <ellipse id="Oval" fill="#CC0000" cx="59.6734458" cy="9.32829025" rx="4.19315663" ry="4.04458957"></ellipse>
                <ellipse id="Oval" fill="#CC0000" cx="31.9144096" cy="36.1038005" rx="4.19315663" ry="4.04458957"></ellipse>
                <path d="M62.6382651,37.0097052 C60.9997108,35.4306939 58.3448675,35.4306939 56.7063133,37.0097052 L54.5519036,39.0900136 L54.5519036,32.9896599 C54.5519036,26.7941043 49.563759,20.7257324 42.0456867,20.7257324 L31.9336867,20.717551 L21.8209157,20.7257324 C14.3028434,20.7257324 9.31546988,26.7941043 9.31546988,32.9896599 L9.31546988,39.0892698 L7.16028916,37.0089615 C5.52250602,35.4299501 2.86689157,35.4299501 1.22910843,37.0089615 C-0.408674699,38.5879728 -0.408674699,41.1502404 1.22910843,42.7292517 L11.7721446,52.9002268 L17.7033253,47.178449 L17.7033253,35.2692971 L19.6557108,35.2692971 L19.6557108,52.9002268 L44.2116627,52.9002268 L44.2116627,35.2692971 L46.1640482,35.2692971 L46.1640482,47.178449 L52.0952289,52.9002268 L62.6390361,42.7299955 C64.2768193,41.1509841 64.2768193,38.5887166 62.6382651,37.0097052 Z M32.0100241,39.8694785 C29.6936867,39.8694785 27.8160964,38.0599002 27.8160964,35.8248889 C27.8160964,33.5891338 29.6936867,31.7802993 32.0100241,31.7802993 C34.3248193,31.7802993 36.2047229,33.5898776 36.2047229,35.8248889 C36.2047229,38.060644 34.3255904,39.8694785 32.0100241,39.8694785 Z" id="Shape" fill="#EAEAEA"></path>
            </g>
        </g>
    </g>
</svg>