<?xml version="1.0" encoding="UTF-8"?>
<svg width="289px" height="555px" viewBox="0 0 289 555" version="1.1" xmlns="http://www.w3.org/2000/svg" xmlns:xlink="http://www.w3.org/1999/xlink">
    <title>about</title>
    <g id="about" stroke="none" stroke-width="1" fill="none" fill-rule="evenodd" opacity="0.886602493">
        <g id="section-2" transform="translate(-7.000000, 207.000000)" fill="#FFFFFF">
            <text id="I-specialize-in-deve" font-family="OpenSans-Regular, Open Sans" font-size="15" font-weight="normal">
                <tspan x="15.2145996" y="16">I specialize in development, design and </tspan>
                <tspan x="37.5498047" y="36">architecture of web applications. </tspan>
                <tspan x="151.5" y="56.7"></tspan>
                <tspan x="7.50952148" y="77.4">Technical aspects take center stage in my </tspan>
                <tspan x="13.6984863" y="97.4">work, combined with a strong sense for </tspan>
                <tspan x="7.3996582" y="117.4">design and usability. I strive to make user </tspan>
                <tspan x="44.1013184" y="137.4">friendly, informative and easily </tspan>
                <tspan x="43.0795898" y="157.4">maintainable web applications.</tspan>
                <tspan x="151.5" y="178.1"></tspan>
                <tspan x="151.5" y="198.8"></tspan>
                <tspan x="151.5" y="219.5"></tspan>
                <tspan x="72.347168" y="240.2" font-family="OpenSansRoman-Bold, Open Sans" font-weight="bold">my current dev stack</tspan>
                <tspan x="151.5" y="260.9"></tspan>
                <tspan x="24.7983398" y="281.6">astro / react / next / angular / stencil</tspan>
                <tspan x="50.0778809" y="302.3">drupal / wordpress / firebase</tspan>
                <tspan x="67.0151367" y="323">css / tailwind / sass / svg</tspan>
                <tspan x="30.3317871" y="343.7">git / typescript / sketch / webstorm</tspan>
                <tspan x="151.5" y="364.4"></tspan>
                <tspan x="140.363525" y="385.1">- - -</tspan>
            </text>
            <g id="dev-stack-icon" transform="translate(135.000000, 180.000000)">
                <path d="M0.73046875,9.40243902 C0.553384531,9.3211378 0.415039561,9.1991878 0.315429688,9.03658537 C0.215819814,8.87398293 0.166015625,8.70122043 0.166015625,8.51829268 C0.166015625,8.33536494 0.221353613,8.16768369 0.33203125,8.0152439 C0.442708887,7.86280412 0.586587656,7.74593537 0.763671875,7.66463415 L16.7011719,0.317073171 C16.8561206,0.235771951 17.0166007,0.195121951 17.1826172,0.195121951 C17.3486336,0.195121951 17.5091138,0.235771951 17.6640625,0.317073171 L33.4355469,7.66463415 C33.6126311,7.74593537 33.7509761,7.86280412 33.8505859,8.0152439 C33.9501958,8.16768369 34,8.33536494 34,8.51829268 C34,8.70122043 33.9501958,8.87398293 33.8505859,9.03658537 C33.7509761,9.1991878 33.6236987,9.3211378 33.46875,9.40243902 L17.4980469,17.2987805 C17.4316403,17.3394311 17.3541671,17.3648373 17.265625,17.375 C17.1770829,17.3851627 17.0885421,17.3902439 17,17.3902439 C16.9114579,17.3902439 16.8284509,17.3800814 16.7509766,17.3597561 C16.6735022,17.3394308 16.5904952,17.3191058 16.5019531,17.2987805 L0.73046875,9.40243902 Z M17.1660156,2.26829268 L3.51953125,8.57926829 L17,15.3170732 L30.6464844,8.57926829 L17.1660156,2.26829268 Z M33.2363281,14.8292683 C33.4134123,14.9105695 33.5572911,15.0325195 33.6679688,15.195122 C33.7786464,15.3577244 33.8339844,15.5203244 33.8339844,15.6829268 C33.8339844,15.8658546 33.7841802,16.0386171 33.6845703,16.2012195 C33.5849604,16.363822 33.4466155,16.485772 33.2695312,16.5670732 L17.3320312,24.4634146 C17.2434891,24.5040652 17.1604822,24.5345527 17.0830078,24.554878 C17.0055335,24.5752034 16.9225265,24.5853659 16.8339844,24.5853659 C16.7454423,24.5853659 16.6569015,24.5752034 16.5683594,24.554878 C16.4798173,24.5345527 16.3912765,24.5040652 16.3027344,24.4634146 L0.53125,16.5670732 C0.376301309,16.485772 0.249023936,16.363822 0.149414063,16.2012195 C0.0498041895,16.0386171 0,15.8658546 0,15.6829268 C0,15.4999991 0.0498041895,15.3323178 0.149414063,15.179878 C0.249023936,15.0274383 0.387368906,14.9105695 0.564453125,14.8292683 L3.91796875,13.304878 L6.17578125,14.4329268 L3.35351562,15.7439024 L16.8339844,22.4817073 L30.4804688,15.7439024 L27.8242188,14.4939024 L30.0820312,13.3658537 L33.2363281,14.8292683 Z M33.2363281,21.6585366 C33.4134123,21.7398378 33.5572911,21.8617878 33.6679688,22.0243902 C33.7786464,22.1869927 33.8339844,22.3495927 33.8339844,22.5121951 C33.8339844,22.6951229 33.7841802,22.8678854 33.6845703,23.0304878 C33.5849604,23.1930902 33.4466155,23.3150402 33.2695312,23.3963415 L17.3320312,31.2926829 C17.2434891,31.3333335 17.1604822,31.363821 17.0830078,31.3841463 C17.0055335,31.4044716 16.9225265,31.4146341 16.8339844,31.4146341 C16.7454423,31.4146341 16.6569015,31.4044716 16.5683594,31.3841463 C16.4798173,31.363821 16.3912765,31.3333335 16.3027344,31.2926829 L0.53125,23.3963415 C0.376301309,23.3150402 0.249023936,23.1930902 0.149414063,23.0304878 C0.0498041895,22.8678854 0,22.6951229 0,22.5121951 C0,22.3292674 0.0498041895,22.1615861 0.149414063,22.0091463 C0.249023936,21.8567066 0.387368906,21.7398378 0.564453125,21.6585366 L3.71875,20.347561 L5.9765625,21.4756098 L3.35351562,22.5731707 L16.8339844,29.3109756 L30.4804688,22.5731707 L27.9902344,21.445122 L30.2480469,20.3170732 L33.2363281,21.6585366 Z" id="undefined---simple-line-icons"></path>
            </g>
        </g>
        <g id="section-1" transform="translate(39.000000, 0.000000)">
            <text id="bs" font-family="OpenSansRoman-Bold, Open Sans" font-size="24" font-weight="bold" fill="#FFFFFF">
                <tspan x="42.9742261" y="104">bob stoute</tspan>
            </text>
            <text id="angular" font-family="OpenSansRoman-Bold, Open Sans" font-size="17" font-weight="bold" fill="#FFFFFF">
                <tspan x="45.7399902" y="139">web developer</tspan>
            </text>
            <g id="Group" transform="translate(68.317757, 0.000000)" fill-rule="nonzero">
                <g id="icon-juggler">
                    <path d="M38.598351,22.6434722 C45.0533112,22.6434722 50.2845691,17.574375 50.2845691,11.3226389 C50.2845691,5.06909722 45.0533112,0 38.598351,0 C32.1424587,0 26.9102689,5.06909722 26.9102689,11.3226389 C26.9112009,17.574375 32.1424587,22.6434722 38.598351,22.6434722 L38.598351,22.6434722 Z" id="Shape" fill="#EAEAEA"></path>
                    <ellipse id="Oval" fill="#CC0000" cx="5.06909166" cy="11.3226389" rx="5.06909166" ry="4.91020833"></ellipse>
                    <ellipse id="Oval" fill="#CC0000" cx="72.1257463" cy="11.3226389" rx="5.06815967" ry="4.90930556"></ellipse>
                    <ellipse id="Oval" fill="#CC0000" cx="38.5741192" cy="43.8226389" rx="5.06815967" ry="4.90930556"></ellipse>
                    <path d="M75.7092465,44.9222222 C73.7287685,43.005625 70.5199282,43.005625 68.5394502,44.9222222 L65.9354711,47.4472917 L65.9354711,40.0427083 C65.9354711,32.5225694 59.9064301,25.1568056 50.8195311,25.1568056 L38.597419,25.146875 L26.3743748,25.1568056 C17.2874758,25.1568056 11.2593669,32.5225694 11.2593669,40.0427083 L11.2593669,47.4463889 L8.6544558,44.9213194 C6.67490981,43.0047222 3.46513748,43.0047222 1.48559149,44.9213194 C-0.49395451,46.8379167 -0.49395451,49.9479861 1.48559149,51.8645833 L14.2286858,64.2100694 L21.3975502,57.265 L21.3975502,42.8097222 L23.7573479,42.8097222 L23.7573479,64.2100694 L53.43749,64.2100694 L53.43749,42.8097222 L55.7972878,42.8097222 L55.7972878,57.265 L62.9661521,64.2100694 L75.7101785,51.8654861 C77.6897245,49.9488889 77.6897245,46.8388194 75.7092465,44.9222222 Z M38.689686,48.3934028 C35.8899891,48.3934028 33.6205943,46.1969444 33.6205943,43.4840972 C33.6205943,40.7703472 35.8899891,38.5747917 38.689686,38.5747917 C41.4875189,38.5747917 43.7597096,40.77125 43.7597096,43.4840972 C43.7597096,46.1978472 41.4884509,48.3934028 38.689686,48.3934028 Z" id="Shape" fill="#EAEAEA"></path>
                </g>
            </g>
        </g>
        <g id="icon-html" transform="translate(127.000000, 161.000000)" fill="#FFFFFF">
            <path d="M11.6916943,24.8510587 C11.9434847,24.5718866 11.9434847,24.142391 11.6916943,23.8632188 L4.07987634,15.4236306 L11.6916943,6.98404231 C11.9434847,6.70487018 11.9434847,6.2753746 11.6916943,5.99620246 L10.7232696,4.9224635 C10.4714792,4.64329137 10.0841093,4.64329137 9.83231889,4.9224635 L0.806600955,14.9297107 C0.55481054,15.2088828 0.55481054,15.6383784 0.806600955,15.9175505 L9.83231889,25.9247976 C10.0841093,26.2039698 10.4714792,26.2039698 10.7232696,25.9247976 L11.6916943,24.8510587 Z M23.1384739,1.93746918 C23.2353163,1.57239793 23.0416314,1.1858519 22.712367,1.07847801 L21.5115204,0.713406758 C21.2016245,0.606032861 20.8529916,0.820780654 20.7561492,1.1858519 L13.5317011,28.909792 C13.4348587,29.2748632 13.6285436,29.6614092 13.957808,29.7687831 L15.1586546,30.1338544 C15.4685505,30.2412283 15.8171834,30.0264805 15.9140258,29.6614092 L23.1384739,1.93746918 Z M35.8635741,15.9175505 C36.1153645,15.6383784 36.1153645,15.2088828 35.8635741,14.9297107 L26.8378561,4.9224635 C26.5860657,4.64329137 26.1986958,4.64329137 25.9469054,4.9224635 L24.9784807,5.99620246 C24.7266903,6.2753746 24.7266903,6.70487018 24.9784807,6.98404231 L32.5902987,15.4236306 L24.9784807,23.8632188 C24.7266903,24.142391 24.7266903,24.5718866 24.9784807,24.8510587 L25.9469054,25.9247976 C26.1986958,26.2039698 26.5860657,26.2039698 26.8378561,25.9247976 L35.8635741,15.9175505 Z" id=""></path>
        </g>
    </g>
</svg>