<?xml version="1.0" encoding="UTF-8"?>
<svg width="64px" height="64px" viewBox="0 0 64 64" version="1.1" xmlns="http://www.w3.org/2000/svg" xmlns:xlink="http://www.w3.org/1999/xlink">
    <title>doc-icon</title>
    <g id="doc-icon" stroke="none" stroke-width="1" fill="none" fill-rule="evenodd" opacity="0.977548363">
        <g id="ion-document-text" transform="translate(7.489837, 0.000000)" fill="#FFFFFF">
            <path d="M47.7312556,17.311828 C47.9537801,17.9713295 48.0650407,18.5209058 48.0650407,18.9605735 L48.0650407,59.3548387 C48.0650407,60.4540079 47.7034438,61.3882877 46.9802394,62.1577061 C46.2570349,62.9271245 45.3947656,63.311828 44.3934056,63.311828 L3.83852755,63.311828 C2.83716753,63.311828 1.94708309,62.9271245 1.16824752,62.1577061 C0.389411944,61.3882877 0,60.4540079 0,59.3548387 L0,3.95698925 C0,2.85782007 0.389411944,1.92354029 1.16824752,1.15412186 C1.94708309,0.384703441 2.83716753,0 3.83852755,0 L30.5413279,0 C31.2089013,0 31.7095738,0.109915269 32.0433604,0.329749104 C32.4884093,0.549582939 32.8778213,0.824371111 33.2116079,1.15412186 L47.2305781,16.3225806 L47.7312556,17.311828 Z M8.01084011,18.9605735 L8.01084011,20.609319 C8.01084011,20.9390697 8.17773094,21.1039427 8.51151762,21.1039427 L20.3608853,21.1039427 C20.6946719,21.1039427 20.8615628,20.9390697 20.8615628,20.609319 L20.8615628,18.9605735 C20.8615628,18.6308227 20.6946719,18.4659498 20.3608853,18.4659498 L8.51151762,18.4659498 C8.17773094,18.4659498 8.01084011,18.6308227 8.01084011,18.9605735 Z M8.01084011,40.0645161 L8.01084011,41.7132616 C8.01084011,42.0430124 8.17773094,42.2078853 8.51151762,42.2078853 L29.0392954,42.2078853 C29.2618198,42.2078853 29.3730804,42.0430124 29.3730804,41.7132616 L29.3730804,40.0645161 C29.3730804,39.7347654 29.2618198,39.5698925 29.0392954,39.5698925 L8.51151762,39.5698925 C8.17773094,39.5698925 8.01084011,39.7347654 8.01084011,40.0645161 Z M34.7136405,52.265233 L34.7136405,50.6164875 C34.7136405,50.2867367 34.6023799,50.1218638 34.3798555,50.1218638 L8.51151762,50.1218638 C8.17773094,50.1218638 8.01084011,50.2867367 8.01084011,50.6164875 L8.01084011,52.265233 C8.01084011,52.5949837 8.17773094,52.7598566 8.51151762,52.7598566 L34.3798555,52.7598566 C34.6023799,52.7598566 34.7136405,52.5949837 34.7136405,52.265233 Z M40.0542005,31.1612903 L40.0542005,29.5125448 C40.0542005,29.1827941 39.94294,29.0179211 39.7204155,29.0179211 L8.51151762,29.0179211 C8.17773094,29.0179211 8.01084011,29.1827941 8.01084011,29.5125448 L8.01084011,31.1612903 C8.01084011,31.4910411 8.17773094,31.655914 8.51151762,31.655914 L39.7204155,31.655914 C39.94294,31.655914 40.0542005,31.4910411 40.0542005,31.1612903 Z M32.2102529,18.7956989 L42.2238031,18.7956989 L30.3744354,5.93548387 L30.3744354,16.8172043 C30.3744354,18.1362073 30.9863685,18.7956989 32.2102529,18.7956989 Z" id="ion-document-text---Ionicons"></path>
        </g>
    </g>
</svg>