<?xml version="1.0" encoding="UTF-8"?>
<svg width="64px" height="64px" viewBox="0 0 64 64" version="1.1" xmlns="http://www.w3.org/2000/svg" xmlns:xlink="http://www.w3.org/1999/xlink">
    <title>headphone-icon</title>
    <g id="headphone-icon" stroke="none" stroke-width="1" fill="none" fill-rule="evenodd">
        <g id="Group" transform="translate(0.000000, 3.000000)" fill="#FFFFFF" fill-rule="nonzero">
            <path d="M57.6,31.7278969 C57.6,17.7482211 46.1568,6.38195654 32,6.38195654 C17.8432,6.38195654 6.4,17.7482211 6.4,31.7278969 C6.4,35.5251611 6.8704,37.9662594 7.4496,39.7563983 C7.84,40.9434422 8.7712,39.7723531 9.232,39.3415711 C12.374454,36.4030336 17.2861061,36.4735665 20.3424,39.50112 C24.8896,44.0067813 29.0848,50.2547168 23.2896,55.9984776 C20.1792,59.0809627 15.4944,60.3637359 11.9296,57.0451185 C7.328,52.7564437 3.3312,47.7657537 1.3632,41.7284228 C0.544,39.1947861 0,36.0708184 0,31.724706 C0,14.1838984 14.3456,0 32,0 C49.6544,0 64,14.1838984 64,31.7278969 C64,36.0740093 63.4592,39.1979771 62.6368,41.7252318 C60.6688,47.7657537 56.672,52.7564437 52.0704,57.0419275 C48.5056,60.3637359 43.8208,59.0841536 40.7104,55.9984776 C34.9184,50.2547168 39.1104,44.0067813 43.6544,39.50112 C46.7110855,36.4715198 51.6251199,36.400973 54.768,39.3415711 C55.6544,40.1712254 56.0928,41.1604287 56.5504,39.7563983 C57.1296,37.9694504 57.6,35.5219701 57.6,31.7278969" id="Path"></path>
        </g>
        <circle id="Oval" fill="#CC0000" fill-rule="nonzero" cx="32" cy="32" r="8"></circle>
    </g>
</svg>