<?xml version="1.0" encoding="UTF-8"?>
<svg width="296px" height="587px" viewBox="0 0 296 587" version="1.1" xmlns="http://www.w3.org/2000/svg" xmlns:xlink="http://www.w3.org/1999/xlink">
    <title>about</title>
    <g id="about" stroke="none" stroke-width="1" fill="none" fill-rule="evenodd" opacity="0.886602493">
        <g id="section-2" transform="translate(-3.000000, 206.000000)" fill="#FFFFFF">
            <text id="I-specialise-in-deve" font-family="OpenSans-Regular, Open Sans" font-size="16" font-weight="normal">
                <tspan x="6.06640625" y="17">I specialise in development, design and </tspan>
                <tspan x="29.953125" y="39">architecture of web applications. </tspan>
                <tspan x="151.5" y="61.7"></tspan>
                <tspan x="11.4023438" y="84.4">Technical aspects take center stage in </tspan>
                <tspan x="3.87109375" y="106.4">my work, combined with a strong sense </tspan>
                <tspan x="3.5" y="128.4">for design and usability. I strive to make </tspan>
                <tspan x="18.3828125" y="150.4">user friendly, informative and easily </tspan>
                <tspan x="35.8515625" y="172.4">maintainable web applications.</tspan>
                <tspan x="151.5" y="195.1"></tspan>
                <tspan x="151.5" y="217.8"></tspan>
                <tspan x="151.5" y="240.5"></tspan>
                <tspan x="75.2304688" y="263.2" font-family="OpenSansRoman-Bold, Open Sans" font-weight="bold">development stack</tspan>
                <tspan x="151.5" y="285.9"></tspan>
                <tspan x="16.3515625" y="308.6">astro / react / next / angular / stencil</tspan>
                <tspan x="43.3164062" y="331.3">drupal / wordpress / firebase</tspan>
                <tspan x="61.3828125" y="354">css / tailwind / sass / svg</tspan>
                <tspan x="22.2539062" y="376.7">git / typescript / sketch / webstorm</tspan>
                <tspan x="151.5" y="399.4"></tspan>
                <tspan x="139.621094" y="422.1">- - -</tspan>
            </text>
            <g id="dev-stack-icon" transform="translate(135.000000, 198.000000)">
                <path d="M0.73046875,10.8715701 C0.553384531,10.7775656 0.415039561,10.6365609 0.315429688,10.4485518 C0.215819814,10.2605428 0.166015625,10.0607861 0.166015625,9.84927591 C0.166015625,9.63776571 0.221353613,9.44388427 0.33203125,9.26762576 C0.442708887,9.09136726 0.586587656,8.95623777 0.763671875,8.86223323 L16.7011719,0.366615854 C16.8561206,0.272611319 17.0166007,0.225609756 17.1826172,0.225609756 C17.3486336,0.225609756 17.5091138,0.272611319 17.6640625,0.366615854 L33.4355469,8.86223323 C33.6126311,8.95623777 33.7509761,9.09136726 33.8505859,9.26762576 C33.9501958,9.44388427 34,9.63776571 34,9.84927591 C34,10.0607861 33.9501958,10.2605428 33.8505859,10.4485518 C33.7509761,10.6365609 33.6236987,10.7775656 33.46875,10.8715701 L17.4980469,20.0017149 C17.4316403,20.0487172 17.3541671,20.0780932 17.265625,20.0898437 C17.1770829,20.1015943 17.0885421,20.1074695 17,20.1074695 C16.9114579,20.1074695 16.8284509,20.0957191 16.7509766,20.072218 C16.6735022,20.0487169 16.5904952,20.0252161 16.5019531,20.0017149 L0.73046875,10.8715701 Z M17.1660156,2.62271341 L3.51953125,9.91977896 L17,17.7103659 L30.6464844,9.91977896 L17.1660156,2.62271341 Z M33.2363281,17.1463415 C33.4134123,17.240346 33.5572911,17.3813507 33.6679688,17.5693598 C33.7786464,17.7573688 33.8339844,17.9453751 33.8339844,18.1333841 C33.8339844,18.3448944 33.7841802,18.544651 33.6845703,18.7326601 C33.5849604,18.9206691 33.4466155,19.0616738 33.2695312,19.1556784 L17.3320312,28.2858232 C17.2434891,28.3328254 17.1604822,28.3680766 17.0830078,28.3915777 C17.0055335,28.4150789 16.9225265,28.4268293 16.8339844,28.4268293 C16.7454423,28.4268293 16.6569015,28.4150789 16.5683594,28.3915777 C16.4798173,28.3680766 16.3912765,28.3328254 16.3027344,28.2858232 L0.53125,19.1556784 C0.376301309,19.0616738 0.249023936,18.9206691 0.149414063,18.7326601 C0.0498041895,18.544651 0,18.3448944 0,18.1333841 C0,17.9218739 0.0498041895,17.7279925 0.149414063,17.551734 C0.249023936,17.3754755 0.387368906,17.240346 0.564453125,17.1463415 L3.91796875,15.3837652 L6.17578125,16.6880716 L3.35351562,18.2038872 L16.8339844,25.9944741 L30.4804688,18.2038872 L27.8242188,16.7585747 L30.0820312,15.4542683 L33.2363281,17.1463415 Z M33.2363281,25.0426829 C33.4134123,25.1366875 33.5572911,25.2776921 33.6679688,25.4657012 C33.7786464,25.6537103 33.8339844,25.8417165 33.8339844,26.0297256 C33.8339844,26.2412358 33.7841802,26.4409925 33.6845703,26.6290015 C33.5849604,26.8170106 33.4466155,26.9580153 33.2695312,27.0520198 L17.3320312,36.1821646 C17.2434891,36.2291669 17.1604822,36.2644181 17.0830078,36.2879192 C17.0055335,36.3114203 16.9225265,36.3231707 16.8339844,36.3231707 C16.7454423,36.3231707 16.6569015,36.3114203 16.5683594,36.2879192 C16.4798173,36.2644181 16.3912765,36.2291669 16.3027344,36.1821646 L0.53125,27.0520198 C0.376301309,26.9580153 0.249023936,26.8170106 0.149414063,26.6290015 C0.0498041895,26.4409925 0,26.2412358 0,26.0297256 C0,25.8182154 0.0498041895,25.624334 0.149414063,25.4480755 C0.249023936,25.271817 0.387368906,25.1366875 0.564453125,25.0426829 L3.71875,23.5268674 L5.9765625,24.8311738 L3.35351562,26.1002287 L16.8339844,33.8908155 L30.4804688,26.1002287 L27.9902344,24.7959223 L30.2480469,23.4916159 L33.2363281,25.0426829 Z" id="undefined---simple-line-icons"></path>
            </g>
        </g>
        <g id="section-1" transform="translate(43.000000, 0.000000)">
            <text id="bs" font-family="OpenSansRoman-Bold, Open Sans" font-size="24" font-weight="bold" fill="#FFFFFF">
                <tspan x="42.9742261" y="104">bob stoute</tspan>
            </text>
            <text id="angular" font-family="OpenSansRoman-Bold, Open Sans" font-size="18" font-weight="bold" fill="#FFFFFF">
                <tspan x="41.5195312" y="137">web-developer</tspan>
            </text>
            <g id="Group" transform="translate(68.317757, 0.000000)" fill-rule="nonzero">
                <g id="icon-juggler">
                    <path d="M35.6292471,20.9016667 C41.5876719,20.9016667 46.4165253,16.2225 46.4165253,10.4516667 C46.4165253,4.67916667 41.5876719,0 35.6292471,0 C29.6699619,0 24.8402482,4.67916667 24.8402482,10.4516667 C24.8411085,16.2225 29.6699619,20.9016667 35.6292471,20.9016667 L35.6292471,20.9016667 Z" id="Shape" fill="#EAEAEA"></path>
                    <ellipse id="Oval" fill="#CC0000" cx="4.67916153" cy="10.4516667" rx="4.67916153" ry="4.5325"></ellipse>
                    <ellipse id="Oval" fill="#CC0000" cx="66.577612" cy="10.4516667" rx="4.67830123" ry="4.53166667"></ellipse>
                    <ellipse id="Oval" fill="#CC0000" cx="35.6068793" cy="40.4516667" rx="4.67830123" ry="4.53166667"></ellipse>
                    <path d="M69.8854583,41.4666667 C68.0573248,39.6975 65.0953183,39.6975 63.2671848,41.4666667 L60.8635118,43.7975 L60.8635118,36.9625 C60.8635118,30.0208333 55.2982432,23.2216667 46.9103364,23.2216667 L35.6283868,23.2125 L24.3455768,23.2216667 C15.95767,23.2216667 10.3932617,30.0208333 10.3932617,36.9625 L10.3932617,43.7966667 L7.98872843,41.4658333 C6.16145521,39.6966667 3.19858845,39.6966667 1.37131522,41.4658333 C-0.455958009,43.235 -0.455958009,46.1058333 1.37131522,47.875 L13.1341716,59.2708333 L19.7515848,52.86 L19.7515848,39.5166667 L21.9298596,39.5166667 L21.9298596,59.2708333 L49.3269139,59.2708333 L49.3269139,39.5166667 L51.5051887,39.5166667 L51.5051887,52.86 L58.122602,59.2708333 L69.8863186,47.8758333 C71.7135918,46.1066667 71.7135918,43.2358333 69.8854583,41.4666667 Z M35.7135563,44.6708333 C33.1292207,44.6708333 31.0343947,42.6433333 31.0343947,40.1391667 C31.0343947,37.6341667 33.1292207,35.6075 35.7135563,35.6075 C38.2961713,35.6075 40.3935781,37.635 40.3935781,40.1391667 C40.3935781,42.6441667 38.2970316,44.6708333 35.7135563,44.6708333 Z" id="Shape" fill="#EAEAEA"></path>
                </g>
            </g>
        </g>
        <g id="icon-html" transform="translate(131.000000, 159.000000)" fill="#FFFFFF">
            <path d="M11.6916943,24.8510587 C11.9434847,24.5718866 11.9434847,24.142391 11.6916943,23.8632188 L4.07987634,15.4236306 L11.6916943,6.98404231 C11.9434847,6.70487018 11.9434847,6.2753746 11.6916943,5.99620246 L10.7232696,4.9224635 C10.4714792,4.64329137 10.0841093,4.64329137 9.83231889,4.9224635 L0.806600955,14.9297107 C0.55481054,15.2088828 0.55481054,15.6383784 0.806600955,15.9175505 L9.83231889,25.9247976 C10.0841093,26.2039698 10.4714792,26.2039698 10.7232696,25.9247976 L11.6916943,24.8510587 Z M23.1384739,1.93746918 C23.2353163,1.57239793 23.0416314,1.1858519 22.712367,1.07847801 L21.5115204,0.713406758 C21.2016245,0.606032861 20.8529916,0.820780654 20.7561492,1.1858519 L13.5317011,28.909792 C13.4348587,29.2748632 13.6285436,29.6614092 13.957808,29.7687831 L15.1586546,30.1338544 C15.4685505,30.2412283 15.8171834,30.0264805 15.9140258,29.6614092 L23.1384739,1.93746918 Z M35.8635741,15.9175505 C36.1153645,15.6383784 36.1153645,15.2088828 35.8635741,14.9297107 L26.8378561,4.9224635 C26.5860657,4.64329137 26.1986958,4.64329137 25.9469054,4.9224635 L24.9784807,5.99620246 C24.7266903,6.2753746 24.7266903,6.70487018 24.9784807,6.98404231 L32.5902987,15.4236306 L24.9784807,23.8632188 C24.7266903,24.142391 24.7266903,24.5718866 24.9784807,24.8510587 L25.9469054,25.9247976 C26.1986958,26.2039698 26.5860657,26.2039698 26.8378561,25.9247976 L35.8635741,15.9175505 Z" id=""></path>
        </g>
    </g>
</svg>